<?xml version="1.0" encoding="UTF-8" standalone="no"?>
<!DOCTYPE svg PUBLIC "-//W3C//DTD SVG 1.1//EN" "http://www.w3.org/Graphics/SVG/1.1/DTD/svg11.dtd">
<svg width="100%" height="100%" viewBox="0 0 391 495" version="1.1" xmlns="http://www.w3.org/2000/svg" xmlns:xlink="http://www.w3.org/1999/xlink" xml:space="preserve" xmlns:serif="http://www.serif.com/" style="fill-rule:evenodd;clip-rule:evenodd;stroke-linejoin:round;stroke-miterlimit:2;">
    <g id="maziaj-2" serif:id="maziaj 2" transform="matrix(-0.973679,0,0,0.973679,1339.77,-1551.94)">
        <g transform="matrix(0.537699,-0.435347,0.533094,0.658427,980.5,1848.99)">
            <path d="M252.28,331.666C293.661,316.75 315.282,324.985 332.026,333.22C347.098,340.632 358.219,348.045 376.243,338.572C412.565,319.479 390.674,265.455 415.188,230.082C445.75,185.985 479.861,207.258 505.218,168.453C530.838,129.247 502.424,61.858 473.451,25.201C438.832,-18.598 380.836,-47.089 326.452,-39.984C268.903,-32.467 269.472,7.846 203.282,30.017C161.969,43.855 131.309,38.346 103.694,32.837C74.502,27.014 48.714,21.191 17.345,38.219C-39.304,68.97 -70.809,150.713 -48.949,190.607C-32.508,220.611 5.41,211.056 19.624,242.065C38.01,282.174 -16.262,318.154 -1.391,360.236C13.217,401.579 106.287,425.315 159.85,418.676C199.891,413.713 184.907,355.95 252.28,331.666Z" style="fill:rgb(243,251,254);fill-rule:nonzero;"/>
        </g>
        <g transform="matrix(1,0,0,1,692,-2)">
            <g transform="matrix(1,0,0,1,0,1647.39)">
                <path d="M322.389,156.353C308.476,157.118 299.556,157.608 294.679,164.27C288.295,172.992 291.697,188.388 300.616,196.73C310.254,205.744 323.412,203.793 328.326,203.063C331.577,202.582 353.195,199.376 356.432,184.063C358.52,174.177 351.974,163.845 344.16,159.125C338.141,155.488 332.398,155.804 322.389,156.353Z" style="fill:rgb(136,193,238);fill-rule:nonzero;"/>
            </g>
            <g transform="matrix(1,0,0,1,0,1647.39)">
                <path d="M314.185,179.689C314.185,181.349 312.841,182.694 311.181,182.694C309.521,182.694 308.176,181.349 308.176,179.689C308.176,178.03 309.521,176.685 311.181,176.685C312.841,176.685 314.185,178.03 314.185,179.689Z" style="fill:white;fill-rule:nonzero;"/>
            </g>
            <g transform="matrix(1,0,0,1,0,1647.39)">
                <path d="M325.974,179.689C325.974,181.349 324.629,182.694 322.969,182.694C321.309,182.694 319.964,181.349 319.964,179.689C319.964,178.03 321.309,176.685 322.969,176.685C324.629,176.685 325.974,178.03 325.974,179.689Z" style="fill:white;fill-rule:nonzero;"/>
            </g>
            <g transform="matrix(1,0,0,1,0,1647.39)">
                <path d="M337.762,179.689C337.762,181.349 336.417,182.694 334.757,182.694C333.098,182.694 331.752,181.349 331.752,179.689C331.752,178.03 333.098,176.685 334.757,176.685C336.417,176.685 337.762,178.03 337.762,179.689Z" style="fill:white;fill-rule:nonzero;"/>
            </g>
            <g transform="matrix(1,0,0,1,0,1647.39)">
                <path d="M337.468,197.667C337.468,197.667 334.717,206.558 351.267,207.026C351.267,207.026 347.24,199.746 350.592,188.971L337.468,197.667Z" style="fill:rgb(136,193,238);fill-rule:nonzero;"/>
            </g>
        </g>
        <g transform="matrix(1,0,0,1,562,1713.22)">
            <path d="M500.579,173.653C497.251,173.653 494.543,176.361 494.543,179.689C494.543,183.018 497.251,185.725 500.579,185.725C503.907,185.725 506.615,183.018 506.615,179.689C506.615,176.361 503.907,173.653 500.579,173.653ZM500.579,187.113C496.486,187.113 493.155,183.782 493.155,179.689C493.155,175.597 496.486,172.266 500.579,172.266C504.672,172.266 508.003,175.597 508.003,179.689C508.003,183.782 504.672,187.113 500.579,187.113ZM495.246,189.622C495.629,189.622 496.012,189.696 496.372,189.846C497.141,190.164 497.741,190.796 498.019,191.579L498.638,193.315C498.996,194.326 499.876,194.685 500.579,194.685C501.282,194.685 502.162,194.326 502.52,193.315L503.139,191.579C503.417,190.796 504.017,190.164 504.786,189.846C505.554,189.527 506.426,189.55 507.177,189.907L508.841,190.697C509.809,191.158 510.686,190.79 511.183,190.294C511.68,189.797 512.047,188.92 511.587,187.952L510.796,186.287C510.438,185.536 510.417,184.664 510.735,183.896C511.054,183.128 511.685,182.527 512.469,182.249L514.203,181.631C515.215,181.272 515.575,180.392 515.575,179.689C515.575,178.987 515.216,178.107 514.203,177.748L512.469,177.131C511.685,176.851 511.054,176.252 510.735,175.483C510.417,174.715 510.438,173.843 510.796,173.092L511.587,171.428C512.047,170.46 511.68,169.583 511.183,169.086C510.686,168.589 509.809,168.222 508.841,168.682L507.177,169.473C506.426,169.83 505.555,169.852 504.787,169.534C504.017,169.216 503.417,168.584 503.139,167.8L502.52,166.064C502.162,165.054 501.282,164.694 500.579,164.694C499.876,164.694 498.996,165.054 498.638,166.064L498.019,167.8C497.741,168.584 497.141,169.216 496.371,169.534C495.604,169.852 494.732,169.83 493.981,169.473L492.317,168.682C491.349,168.222 490.472,168.589 489.975,169.086C489.478,169.583 489.111,170.46 489.571,171.428L490.362,173.092C490.72,173.843 490.741,174.715 490.423,175.483C490.104,176.252 489.473,176.851 488.689,177.131L486.954,177.748C485.942,178.107 485.583,178.987 485.583,179.689C485.583,180.392 485.943,181.272 486.954,181.631L488.689,182.249C489.473,182.527 490.104,183.128 490.423,183.896C490.741,184.664 490.72,185.536 490.362,186.287L489.571,187.951C489.111,188.92 489.478,189.797 489.975,190.294C490.472,190.79 491.349,191.158 492.317,190.697L493.981,189.907C494.38,189.717 494.812,189.622 495.246,189.622ZM500.579,196.072C499.1,196.072 497.825,195.173 497.33,193.78L496.713,192.044C496.563,191.623 496.254,191.298 495.842,191.127C495.429,190.955 494.978,190.968 494.577,191.159L492.913,191.95C491.576,192.584 490.039,192.319 488.994,191.274C487.949,190.228 487.684,188.69 488.318,187.356L489.109,185.692C489.302,185.289 489.312,184.84 489.142,184.428C488.971,184.015 488.645,183.705 488.225,183.556L486.489,182.938C485.097,182.443 484.196,181.168 484.196,179.69C484.195,178.212 485.097,176.936 486.489,176.44L488.225,175.824C488.645,175.674 488.971,175.365 489.142,174.952C489.312,174.54 489.302,174.091 489.109,173.686L488.318,172.023C487.684,170.689 487.949,169.151 488.994,168.105C490.039,167.06 491.576,166.796 492.913,167.43L494.577,168.22C494.98,168.412 495.429,168.423 495.842,168.253C496.254,168.082 496.563,167.756 496.713,167.335L497.33,165.599C497.825,164.207 499.1,163.307 500.579,163.307C502.058,163.307 503.333,164.207 503.828,165.599L504.445,167.335C504.595,167.756 504.904,168.082 505.316,168.253C505.728,168.423 506.178,168.412 506.581,168.22L508.245,167.43C509.583,166.796 511.119,167.06 512.164,168.105C513.209,169.151 513.474,170.689 512.84,172.023L512.049,173.687C511.856,174.091 511.846,174.54 512.017,174.952C512.187,175.365 512.513,175.674 512.934,175.824L514.669,176.44C516.06,176.936 516.963,178.212 516.961,179.69C516.961,181.168 516.06,182.443 514.669,182.938L512.934,183.556C512.513,183.705 512.187,184.015 512.017,184.428C511.846,184.84 511.856,185.289 512.049,185.692L512.84,187.356C513.474,188.69 513.209,190.228 512.164,191.274C511.119,192.319 509.581,192.584 508.245,191.95L506.581,191.159C506.178,190.968 505.729,190.955 505.316,191.127C504.904,191.298 504.595,191.623 504.445,192.044L503.828,193.78C503.333,195.173 502.058,196.072 500.579,196.072Z" style="fill:rgb(176,222,254);fill-rule:nonzero;"/>
        </g>
        <g transform="matrix(0.0887679,0.934216,-0.833591,0.0792067,1937.27,1208.5)">
            <path d="M344.617,835.746C345.611,839.745 346.695,843.736 347.841,847.611L344.876,848.486C343.719,844.569 342.623,840.535 341.618,836.493L344.617,835.746ZM355.919,870.799L353.056,871.963C351.521,868.181 350.048,864.266 348.678,860.327L351.599,859.311C352.951,863.202 354.404,867.067 355.919,870.799ZM366.382,892.975L363.667,894.453C361.717,890.873 359.823,887.139 358.04,883.353L360.837,882.037C362.594,885.766 364.459,889.446 366.382,892.975ZM379.432,913.699L376.929,915.514C374.523,912.198 372.177,908.726 369.957,905.196L372.574,903.55C374.758,907.022 377.065,910.436 379.432,913.699ZM395.16,932.436L392.944,934.591C390.081,931.646 387.272,928.534 384.593,925.339L386.962,923.354C389.592,926.489 392.35,929.545 395.16,932.436ZM413.483,948.619L411.622,951.088C408.324,948.6 405.075,945.946 401.965,943.197L404.012,940.88C407.062,943.576 410.249,946.18 413.483,948.619ZM434.1,961.747L432.65,964.476C428.985,962.532 425.358,960.419 421.871,958.196L423.531,955.59C426.951,957.768 430.507,959.839 434.1,961.747ZM456.529,971.477L455.523,974.401C451.591,973.046 447.678,971.528 443.893,969.888L445.123,967.051C448.834,968.66 452.672,970.149 456.529,971.477ZM480.175,977.663L479.616,980.704C475.527,979.953 471.434,979.045 467.451,978.005L468.232,975.014C472.142,976.035 476.16,976.928 480.175,977.663ZM504.498,980.346L504.377,983.434C500.216,983.27 496.034,982.958 491.949,982.509L492.287,979.436C496.301,979.878 500.409,980.184 504.498,980.346ZM528.979,979.646L529.274,982.722C525.138,983.12 520.953,983.381 516.838,983.499L516.75,980.41C520.796,980.293 524.911,980.036 528.979,979.646ZM553.159,975.719L553.851,978.731C549.819,979.658 545.707,980.465 541.629,981.129L541.133,978.078C545.145,977.425 549.191,976.631 553.159,975.719ZM577.71,971.589C573.98,972.975 570.14,974.266 566.298,975.427L565.896,975.548L565.004,972.589L565.404,972.468C569.184,971.326 572.962,970.056 576.633,968.691L577.71,971.589ZM600.44,961.369C596.81,963.307 593.044,965.155 589.245,966.861L587.978,964.043C591.714,962.364 595.417,960.548 598.984,958.642L600.44,961.369ZM621.544,948.091C618.236,950.529 614.766,952.891 611.229,955.112L609.586,952.496C613.057,950.314 616.464,947.995 619.71,945.602L621.544,948.091ZM640.389,931.734C637.521,934.675 634.463,937.556 631.297,940.299L629.273,937.961C632.373,935.276 635.369,932.456 638.177,929.577L640.389,931.734ZM656.116,912.327C653.85,915.751 651.356,919.143 648.707,922.404L646.308,920.454C648.894,917.27 651.327,913.963 653.538,910.62L656.116,912.327ZM667.616,890.122C666.141,893.969 664.409,897.811 662.47,901.542L659.728,900.117C661.613,896.488 663.296,892.752 664.729,889.015L667.616,890.122ZM673.733,865.859C673.215,869.981 672.434,874.127 671.409,878.178L668.412,877.421C669.405,873.49 670.164,869.472 670.666,865.474L673.733,865.859ZM673.802,840.841C674.294,845.006 674.538,849.212 674.528,853.347L671.438,853.34C671.447,849.329 671.209,845.245 670.731,841.202L673.802,840.841ZM669.743,821.516C670.442,823.833 671.074,826.186 671.622,828.512L668.613,829.221C667.694,825.32 666.541,821.377 665.193,817.52L668.112,816.502C668.69,818.159 669.24,819.847 669.743,821.516Z" style="fill:rgb(176,222,254);fill-rule:nonzero;"/>
        </g>
    </g>
</svg>
