<?xml version="1.0" encoding="UTF-8" standalone="no"?>
<!DOCTYPE svg PUBLIC "-//W3C//DTD SVG 1.1//EN" "http://www.w3.org/Graphics/SVG/1.1/DTD/svg11.dtd">
<svg width="100%" height="100%" viewBox="0 0 411 324" version="1.1" xmlns="http://www.w3.org/2000/svg" xmlns:xlink="http://www.w3.org/1999/xlink" xml:space="preserve" xmlns:serif="http://www.serif.com/" style="fill-rule:evenodd;clip-rule:evenodd;stroke-linejoin:round;stroke-miterlimit:2;">
    <g transform="matrix(-0.879809,-0.119906,0.0910827,-0.668318,629.868,916.826)">
        <path d="M344.617,835.746C345.611,839.745 346.695,843.736 347.841,847.611L344.876,848.486C343.719,844.569 342.623,840.535 341.618,836.493L344.617,835.746ZM355.919,870.799L353.056,871.963C351.521,868.181 350.048,864.266 348.678,860.327L351.599,859.311C352.951,863.202 354.404,867.067 355.919,870.799ZM366.382,892.975L363.667,894.453C361.717,890.873 359.823,887.139 358.04,883.353L360.837,882.037C362.594,885.766 364.459,889.446 366.382,892.975ZM379.432,913.699L376.929,915.514C374.523,912.198 372.177,908.726 369.957,905.196L372.574,903.55C374.758,907.022 377.065,910.436 379.432,913.699ZM395.16,932.436L392.944,934.591C390.081,931.646 387.272,928.534 384.593,925.339L386.962,923.354C389.592,926.489 392.35,929.545 395.16,932.436ZM413.483,948.619L411.622,951.088C408.324,948.6 405.075,945.946 401.965,943.197L404.012,940.88C407.062,943.576 410.249,946.18 413.483,948.619ZM434.1,961.747L432.65,964.476C428.985,962.532 425.358,960.419 421.871,958.196L423.531,955.59C426.951,957.768 430.507,959.839 434.1,961.747ZM456.529,971.477L455.523,974.401C451.591,973.046 447.678,971.528 443.893,969.888L445.123,967.051C448.834,968.66 452.672,970.149 456.529,971.477ZM480.175,977.663L479.616,980.704C475.527,979.953 471.434,979.045 467.451,978.005L468.232,975.014C472.142,976.035 476.16,976.928 480.175,977.663ZM504.498,980.346L504.377,983.434C500.216,983.27 496.034,982.958 491.949,982.509L492.287,979.436C496.301,979.878 500.409,980.184 504.498,980.346ZM528.979,979.646L529.274,982.722C525.138,983.12 520.953,983.381 516.838,983.499L516.75,980.41C520.796,980.293 524.911,980.036 528.979,979.646ZM553.159,975.719L553.851,978.731C549.819,979.658 545.707,980.465 541.629,981.129L541.133,978.078C545.145,977.425 549.191,976.631 553.159,975.719ZM577.71,971.589C573.98,972.975 570.14,974.266 566.298,975.427L565.896,975.548L565.004,972.589L565.404,972.468C569.184,971.326 572.962,970.056 576.633,968.691L577.71,971.589ZM600.44,961.369C596.81,963.307 593.044,965.155 589.245,966.861L587.978,964.043C591.714,962.364 595.417,960.548 598.984,958.642L600.44,961.369ZM621.544,948.091C618.236,950.529 614.766,952.891 611.229,955.112L609.586,952.496C613.057,950.314 616.464,947.995 619.71,945.602L621.544,948.091ZM640.389,931.734C637.521,934.675 634.463,937.556 631.297,940.299L629.273,937.961C632.373,935.276 635.369,932.456 638.177,929.577L640.389,931.734ZM656.116,912.327C653.85,915.751 651.356,919.143 648.707,922.404L646.308,920.454C648.894,917.27 651.327,913.963 653.538,910.62L656.116,912.327ZM667.616,890.122C666.141,893.969 664.409,897.811 662.47,901.542L659.728,900.117C661.613,896.488 663.296,892.752 664.729,889.015L667.616,890.122ZM673.733,865.859C673.215,869.981 672.434,874.127 671.409,878.178L668.412,877.421C669.405,873.49 670.164,869.472 670.666,865.474L673.733,865.859ZM673.802,840.841C674.294,845.006 674.538,849.212 674.528,853.347L671.438,853.34C671.447,849.329 671.209,845.245 670.731,841.202L673.802,840.841ZM669.743,821.516C670.442,823.833 671.074,826.186 671.622,828.512L668.613,829.221C667.694,825.32 666.541,821.377 665.193,817.52L668.112,816.502C668.69,818.159 669.24,819.847 669.743,821.516Z" style="fill:rgb(176,222,254);fill-rule:nonzero;"/>
    </g>
    <g transform="matrix(0.868479,0,0,0.868479,51.3733,-2289.17)">
        <g transform="matrix(1,0,0,1,26,1900.16)">
            <path d="M226.346,858.408C226.346,858.408 198.377,1025.92 108.285,1059.61C18.194,1093.3 -43.678,1072.82 -43.678,1072.82C-43.678,1072.82 -33.589,974.907 43.569,918.062C120.729,861.217 154.225,863.72 154.225,863.72L154.281,889.481L187.698,855.917C187.698,855.917 203.143,850.731 226.346,858.408Z" style="fill:rgb(176,222,254);fill-rule:nonzero;"/>
        </g>
        <g transform="matrix(1,0,0,1,26,1900.16)">
            <path d="M-44.694,1074.15C-44.941,1073.96 -45.138,1073.7 -45.252,1073.39C-45.564,1072.52 -45.113,1071.56 -44.244,1071.25C26.676,1045.75 223.216,859.08 225.193,857.198C225.861,856.561 226.922,856.583 227.556,857.256C228.192,857.924 228.167,858.981 227.498,859.618C227.004,860.091 177.311,907.348 119.452,957.163C41.665,1024.13 -13.029,1063.58 -43.113,1074.4C-43.668,1074.6 -44.257,1074.48 -44.694,1074.15Z" style="fill:white;fill-rule:nonzero;"/>
        </g>
        <g transform="matrix(1,0,0,1,26,1900.16)">
            <path d="M69.213,997.516C69.093,997.425 68.985,997.316 68.89,997.19C62.237,988.329 69.911,964.507 92.351,924.362C108.607,895.28 126.909,868.259 127.092,867.989C127.611,867.225 128.649,867.027 129.414,867.545C130.177,868.059 130.376,869.103 129.856,869.867C109.734,899.516 60.032,979.824 71.563,995.182C72.118,995.921 71.968,996.969 71.23,997.522C70.618,997.982 69.793,997.959 69.213,997.516Z" style="fill:white;fill-rule:nonzero;"/>
        </g>
        <g transform="matrix(1,0,0,1,26,1900.16)">
            <path d="M119.721,955.176C119.129,954.724 118.892,953.912 119.197,953.194C119.559,952.345 120.541,951.949 121.391,952.309C156.144,967.09 202.083,942.26 202.543,942.007C203.352,941.562 204.37,941.859 204.812,942.667C205.257,943.477 204.961,944.493 204.152,944.937C203.668,945.203 192.119,951.493 175.953,955.996C160.947,960.176 139.073,963.463 120.082,955.386C119.95,955.33 119.83,955.26 119.721,955.176Z" style="fill:white;fill-rule:nonzero;"/>
        </g>
        <g transform="matrix(1,0,0,1,26,1900.16)">
            <path d="M110.437,969.599C109.014,968.513 107.731,967.307 106.59,965.981C105.987,965.281 106.065,964.225 106.766,963.624C107.465,963.022 108.521,963.103 109.122,963.8C128.57,986.387 191.859,962.781 192.497,962.541C193.361,962.215 194.325,962.649 194.651,963.513C194.978,964.376 194.543,965.341 193.68,965.668C193.517,965.729 177.113,971.893 158.416,975.048C136.19,978.797 120.089,976.963 110.437,969.599Z" style="fill:white;fill-rule:nonzero;"/>
        </g>
        <g transform="matrix(1,0,0,1,26,1900.16)">
            <path d="M14.474,1035.38C14.369,1035.3 14.271,1035.21 14.184,1035.1C5.283,1024.02 3.829,1004.27 9.863,976.388C14.305,955.864 21.385,938.266 21.457,938.09C21.802,937.234 22.778,936.822 23.632,937.168C24.491,937.511 24.902,938.488 24.555,939.344C24.277,940.031 -3.024,1008.35 16.79,1033C17.368,1033.72 17.253,1034.78 16.534,1035.35C15.922,1035.85 15.071,1035.84 14.474,1035.38Z" style="fill:white;fill-rule:nonzero;"/>
        </g>
        <g transform="matrix(1,0,0,1,26,1900.16)">
            <path d="M1.283,1048.63C1.123,1048.51 0.984,1048.35 0.873,1048.17C-24.831,1006.37 -9.969,975.405 -9.324,974.106C-8.915,973.281 -7.913,972.945 -7.086,973.354C-6.256,973.766 -5.921,974.766 -6.331,975.594C-6.479,975.895 -20.962,1006.28 3.72,1046.42C4.204,1047.21 3.958,1048.24 3.172,1048.72C2.566,1049.1 1.816,1049.04 1.283,1048.63Z" style="fill:white;fill-rule:nonzero;"/>
        </g>
        <g transform="matrix(1,0,0,1,26,1900.16)">
            <path d="M80.539,743.6C70.902,739.137 58.769,740.242 49.628,746.416C42.857,750.991 41.105,756.325 39.076,762.502C37.342,767.777 35.379,773.757 29.756,779.295C19.089,789.802 4.788,789.461 -6.702,789.186C-15.92,788.968 -23.88,788.777 -27.332,793.929C-31.535,800.202 -26.133,809.507 -19.88,820.28C-12.64,832.754 -4.434,846.892 -9.399,860.604C-14.177,873.8 -28.105,877.859 -41.574,881.784C-54.496,885.551 -67.857,889.445 -73.533,901.258C-77.647,909.819 -77.397,921.96 -72.846,934.568C-65.979,953.599 -50.853,970.406 -33.371,978.423C-14.836,986.928 7.76,986.387 28.626,976.94C46.068,969.045 59.304,956.103 63.17,943.165C66.335,932.58 63.03,922.528 59.834,912.808C56.145,901.59 52.661,890.993 59.477,880.887C65.036,872.647 73.646,870.508 81.243,868.619C87.844,866.977 93.547,865.56 95.567,860.468C98.68,852.624 90.748,842.382 83.077,832.475C74.616,821.552 65.867,810.254 70.104,800.153C72.702,793.962 78.566,791.966 84.24,790.035C89.93,788.098 95.306,786.268 97.88,780.457C102.653,769.692 95.582,750.563 80.539,743.6ZM-48.74,973.83C-61.152,964.36 -71.305,950.795 -76.664,935.945C-81.654,922.119 -81.841,909.176 -77.191,899.498C-70.731,886.056 -56.486,881.903 -42.711,877.888C-29.638,874.078 -17.292,870.48 -13.215,859.223C-8.895,847.292 -16.596,834.024 -23.39,822.317C-30.038,810.865 -36.317,800.048 -30.704,791.67C-26.011,784.668 -16.585,784.891 -6.605,785.13C4.677,785.398 17.466,785.703 26.908,776.403C31.83,771.556 33.476,766.542 35.22,761.234C37.291,754.928 39.434,748.405 47.356,743.053C57.651,736.099 71.345,734.869 82.246,739.917C99.733,748.028 107.124,769.618 101.592,782.101C98.295,789.538 91.523,791.844 85.546,793.878C80.283,795.668 75.738,797.216 73.846,801.723C70.526,809.641 78.538,819.985 86.286,829.991C94.653,840.796 103.307,851.97 99.339,861.965C96.55,868.996 89.589,870.725 82.221,872.557C74.998,874.353 67.528,876.21 62.842,883.157C57.137,891.614 60.174,900.849 63.689,911.541C66.923,921.375 70.588,932.521 67.06,944.328C62.866,958.358 48.781,972.271 30.3,980.638C8.364,990.568 -15.46,991.105 -35.063,982.111C-39.824,979.928 -44.42,977.127 -48.74,973.83Z" style="fill:rgb(250,126,141);fill-rule:nonzero;"/>
        </g>
        <g transform="matrix(1,0,0,1,26,1900.16)">
            <path d="M-65.218,1020.85L-67.987,1017.89C10.384,944.751 36.744,814.969 37,813.666L40.982,814.453C40.723,815.768 14.101,946.834 -65.218,1020.85Z" style="fill:rgb(250,126,141);fill-rule:nonzero;"/>
        </g>
    </g>
</svg>
