<?xml version="1.0" encoding="UTF-8" standalone="no"?>
<!DOCTYPE svg PUBLIC "-//W3C//DTD SVG 1.1//EN" "http://www.w3.org/Graphics/SVG/1.1/DTD/svg11.dtd">
<svg width="100%" height="100%" viewBox="0 0 580 537" version="1.1" xmlns="http://www.w3.org/2000/svg" xmlns:xlink="http://www.w3.org/1999/xlink" xml:space="preserve" xmlns:serif="http://www.serif.com/" style="fill-rule:evenodd;clip-rule:evenodd;stroke-linejoin:round;stroke-miterlimit:2;">
    <g transform="matrix(1,0,0,1,289.376,-491.231)">
        <g transform="matrix(0.988535,0.150991,-0.150991,0.988535,-204.021,581.774)">
            <path d="M252.28,331.666C293.661,316.75 315.282,324.985 332.026,333.22C347.098,340.632 358.219,348.045 376.243,338.572C412.565,319.479 390.674,265.455 415.188,230.082C445.75,185.985 479.861,207.258 505.218,168.453C530.838,129.247 502.424,61.858 473.451,25.201C438.832,-18.598 380.836,-47.089 326.452,-39.984C268.903,-32.467 269.472,7.846 203.282,30.017C161.969,43.855 131.309,38.346 103.694,32.837C74.502,27.014 48.714,21.191 17.345,38.219C-39.304,68.97 -70.809,150.713 -48.949,190.607C-32.508,220.611 5.41,211.056 19.624,242.065C38.01,282.174 -16.262,318.154 -1.391,360.236C13.217,401.579 106.287,425.315 159.85,418.676C199.891,413.713 184.907,355.95 252.28,331.666Z" style="fill:rgb(243,251,254);fill-rule:nonzero;"/>
        </g>
        <g transform="matrix(0.0623211,0.881069,0.751111,-0.0531287,-731.026,239.992)">
            <path d="M344.617,835.746C345.611,839.745 346.695,843.736 347.841,847.611L344.876,848.486C343.719,844.569 342.623,840.535 341.618,836.493L344.617,835.746ZM355.919,870.799L353.056,871.963C351.521,868.181 350.048,864.266 348.678,860.327L351.599,859.311C352.951,863.202 354.404,867.067 355.919,870.799ZM366.382,892.975L363.667,894.453C361.717,890.873 359.823,887.139 358.04,883.353L360.837,882.037C362.594,885.766 364.459,889.446 366.382,892.975ZM379.432,913.699L376.929,915.514C374.523,912.198 372.177,908.726 369.957,905.196L372.574,903.55C374.758,907.022 377.065,910.436 379.432,913.699ZM395.16,932.436L392.944,934.591C390.081,931.646 387.272,928.534 384.593,925.339L386.962,923.354C389.592,926.489 392.35,929.545 395.16,932.436ZM413.483,948.619L411.622,951.088C408.324,948.6 405.075,945.946 401.965,943.197L404.012,940.88C407.062,943.576 410.249,946.18 413.483,948.619ZM434.1,961.747L432.65,964.476C428.985,962.532 425.358,960.419 421.871,958.196L423.531,955.59C426.951,957.768 430.507,959.839 434.1,961.747ZM456.529,971.477L455.523,974.401C451.591,973.046 447.678,971.528 443.893,969.888L445.123,967.051C448.834,968.66 452.672,970.149 456.529,971.477ZM480.175,977.663L479.616,980.704C475.527,979.953 471.434,979.045 467.451,978.005L468.232,975.014C472.142,976.035 476.16,976.928 480.175,977.663ZM504.498,980.346L504.377,983.434C500.216,983.27 496.034,982.958 491.949,982.509L492.287,979.436C496.301,979.878 500.409,980.184 504.498,980.346ZM528.979,979.646L529.274,982.722C525.138,983.12 520.953,983.381 516.838,983.499L516.75,980.41C520.796,980.293 524.911,980.036 528.979,979.646ZM553.159,975.719L553.851,978.731C549.819,979.658 545.707,980.465 541.629,981.129L541.133,978.078C545.145,977.425 549.191,976.631 553.159,975.719ZM577.71,971.589C573.98,972.975 570.14,974.266 566.298,975.427L565.896,975.548L565.004,972.589L565.404,972.468C569.184,971.326 572.962,970.056 576.633,968.691L577.71,971.589ZM600.44,961.369C596.81,963.307 593.044,965.155 589.245,966.861L587.978,964.043C591.714,962.364 595.417,960.548 598.984,958.642L600.44,961.369ZM621.544,948.091C618.236,950.529 614.766,952.891 611.229,955.112L609.586,952.496C613.057,950.314 616.464,947.995 619.71,945.602L621.544,948.091ZM640.389,931.734C637.521,934.675 634.463,937.556 631.297,940.299L629.273,937.961C632.373,935.276 635.369,932.456 638.177,929.577L640.389,931.734ZM656.116,912.327C653.85,915.751 651.356,919.143 648.707,922.404L646.308,920.454C648.894,917.27 651.327,913.963 653.538,910.62L656.116,912.327ZM667.616,890.122C666.141,893.969 664.409,897.811 662.47,901.542L659.728,900.117C661.613,896.488 663.296,892.752 664.729,889.015L667.616,890.122ZM673.733,865.859C673.215,869.981 672.434,874.127 671.409,878.178L668.412,877.421C669.405,873.49 670.164,869.472 670.666,865.474L673.733,865.859ZM673.802,840.841C674.294,845.006 674.538,849.212 674.528,853.347L671.438,853.34C671.447,849.329 671.209,845.245 670.731,841.202L673.802,840.841ZM669.743,821.516C670.442,823.833 671.074,826.186 671.622,828.512L668.613,829.221C667.694,825.32 666.541,821.377 665.193,817.52L668.112,816.502C668.69,818.159 669.24,819.847 669.743,821.516Z" style="fill:rgb(176,222,254);fill-rule:nonzero;"/>
        </g>
        <g transform="matrix(0.773041,0,0,0.773041,-592.798,619.668)">
            <path d="M824.793,223.247C822.502,223.248 820.525,221.853 819.757,219.694L818.751,216.864C818.48,216.102 817.92,215.514 817.174,215.204C816.823,215.059 816.458,214.987 816.094,214.987C815.682,214.987 815.272,215.079 814.886,215.263L812.173,216.553C811.425,216.908 810.636,217.081 809.857,217.081C808.48,217.081 807.134,216.54 806.099,215.505C804.48,213.885 804.068,211.501 805.052,209.433L806.342,206.719C806.689,205.989 806.71,205.177 806.4,204.431C806.092,203.685 805.502,203.124 804.74,202.853L801.911,201.847C799.752,201.079 798.356,199.104 798.356,196.812C798.356,194.521 799.752,192.545 801.911,191.777L804.74,190.77C805.502,190.5 806.092,189.941 806.4,189.193C806.71,188.447 806.689,187.635 806.342,186.905L805.052,184.191C804.069,182.123 804.48,179.739 806.099,178.119C807.134,177.084 808.48,176.543 809.857,176.543C810.636,176.543 811.425,176.716 812.173,177.071L814.886,178.361C815.273,178.545 815.683,178.638 816.094,178.638C816.459,178.638 816.823,178.565 817.174,178.42C817.92,178.111 818.48,177.521 818.751,176.76L819.757,173.93C820.525,171.771 822.502,170.377 824.793,170.377C827.084,170.377 829.061,171.771 829.827,173.93L830.834,176.761C831.104,177.521 831.664,178.111 832.411,178.42C832.762,178.565 833.128,178.638 833.492,178.638C833.903,178.638 834.313,178.546 834.699,178.361L837.412,177.071C838.159,176.717 838.948,176.544 839.726,176.544C841.103,176.544 842.45,177.084 843.485,178.119C845.106,179.739 845.517,182.123 844.533,184.191L843.243,186.905C842.897,187.635 842.876,188.448 843.185,189.194C843.494,189.941 844.083,190.5 844.844,190.77L847.675,191.777C849.834,192.545 851.229,194.521 851.229,196.812C851.229,199.104 849.833,201.079 847.675,201.847L844.844,202.853C844.083,203.124 843.494,203.684 843.185,204.431C843.051,204.755 842.979,205.092 842.969,205.429C842.956,205.867 843.047,206.306 843.243,206.719L844.533,209.433C845.517,211.501 845.106,213.885 843.485,215.505C842.45,216.539 841.104,217.081 839.727,217.081C838.948,217.081 838.16,216.908 837.412,216.553L834.699,215.263C834.313,215.079 833.903,214.986 833.491,214.986C833.435,214.986 833.379,214.988 833.324,214.991C833.015,215.01 832.708,215.081 832.411,215.204C831.664,215.514 831.104,216.102 830.834,216.864L829.879,219.548L829.827,219.694C829.472,220.693 828.858,221.529 828.074,222.138C827.163,222.845 826.023,223.247 824.793,223.247ZM816.096,213.286C816.685,213.286 817.271,213.4 817.826,213.629C819.007,214.118 819.929,215.089 820.358,216.293L821.363,219.123C821.998,220.907 823.551,221.543 824.793,221.543C826.034,221.543 827.587,220.907 828.221,219.123L829.227,216.293C829.656,215.089 830.578,214.118 831.76,213.629C832.313,213.4 832.902,213.286 833.49,213.286C833.87,213.286 834.25,213.334 834.62,213.429C834.897,213.5 835.169,213.598 835.432,213.723L838.144,215.013C838.695,215.275 839.229,215.385 839.729,215.385C840.782,215.385 841.685,214.895 842.28,214.3C843.158,213.422 843.807,211.874 842.993,210.164L841.704,207.45C841.583,207.195 841.487,206.932 841.416,206.662C841.166,205.713 841.229,204.697 841.609,203.778C842.099,202.598 843.069,201.676 844.273,201.247L847.103,200.24C848.888,199.606 849.523,198.054 849.523,196.812C849.523,195.571 848.888,194.018 847.103,193.384L844.273,192.377C843.069,191.948 842.099,191.027 841.61,189.846C841.121,188.666 841.155,187.327 841.704,186.174L842.993,183.46C843.807,181.75 843.158,180.202 842.28,179.325C841.684,178.729 840.781,178.239 839.728,178.239C839.229,178.239 838.695,178.349 838.144,178.611L835.432,179.901C834.819,180.192 834.155,180.338 833.49,180.338C832.902,180.338 832.313,180.224 831.76,179.995C830.578,179.506 829.656,178.535 829.227,177.332L828.221,174.501C827.587,172.717 826.034,172.081 824.793,172.081C823.551,172.081 821.998,172.717 821.363,174.501L820.358,177.331C819.929,178.535 819.007,179.506 817.826,179.995C817.273,180.224 816.684,180.338 816.096,180.338C815.43,180.338 814.766,180.192 814.153,179.901L811.44,178.611C810.89,178.349 810.356,178.239 809.856,178.239C808.803,178.239 807.901,178.729 807.305,179.325C806.427,180.203 805.778,181.75 806.592,183.46L807.882,186.174C808.431,187.327 808.465,188.666 807.975,189.846C807.486,191.027 806.515,191.948 805.312,192.377L802.481,193.384C800.697,194.018 800.061,195.571 800.061,196.812C800.061,198.054 800.697,199.606 802.481,200.24L805.312,201.247C806.515,201.676 807.486,202.598 807.975,203.778C808.465,204.958 808.431,206.297 807.882,207.45L806.592,210.164C805.778,211.874 806.427,213.422 807.305,214.3C807.901,214.895 808.805,215.385 809.858,215.385C810.357,215.385 810.891,215.275 811.44,215.013L814.153,213.723C814.766,213.432 815.43,213.286 816.096,213.286ZM824.793,208.639C818.271,208.639 812.967,203.333 812.967,196.812C812.967,190.291 818.271,184.985 824.793,184.985C831.315,184.985 836.619,190.291 836.619,196.812C836.619,203.333 831.315,208.639 824.793,208.639ZM824.793,186.69C819.211,186.69 814.671,191.231 814.671,196.812C814.671,202.394 819.211,206.934 824.793,206.934C830.374,206.934 834.915,202.394 834.915,196.812C834.915,191.231 830.374,186.69 824.793,186.69Z" style="fill:rgb(136,193,238);fill-rule:nonzero;"/>
        </g>
    </g>
</svg>
