<?xml version="1.0" encoding="UTF-8" standalone="no"?>
<!DOCTYPE svg PUBLIC "-//W3C//DTD SVG 1.1//EN" "http://www.w3.org/Graphics/SVG/1.1/DTD/svg11.dtd">
<svg width="100%" height="100%" viewBox="0 0 121 161" version="1.1" xmlns="http://www.w3.org/2000/svg" xmlns:xlink="http://www.w3.org/1999/xlink" xml:space="preserve" xmlns:serif="http://www.serif.com/" style="fill-rule:evenodd;clip-rule:evenodd;stroke-linejoin:round;stroke-miterlimit:2;">
    <g transform="matrix(1,0,0,1,-434.04,-567.315)">
        <path d="M493.616,725.462C480.201,725.462 469.326,723.253 469.326,720.527C469.326,719.183 471.974,717.964 476.27,717.074L476.505,718.364C476.732,719.617 477.824,720.527 479.098,720.527L507.641,720.527C508.914,720.527 510.005,719.617 510.233,718.364L510.485,716.978C515.06,717.875 517.906,719.134 517.906,720.527C517.906,723.253 507.031,725.462 493.616,725.462Z" style="fill:rgb(232,231,237);fill-rule:nonzero;"/>
        <path d="M543.007,604.607C548.457,607.998 553.538,615.362 551.769,621.159C549.51,628.558 537.562,628.581 537.02,634.316C536.511,639.692 546.793,641.932 546.562,646.993C546.267,653.45 528.976,661.948 515.021,656.766C504.444,652.838 496.546,641.333 499.03,636.069C501.261,631.343 510.646,634.23 514.029,628.339C517.063,623.057 510.988,618.172 513.278,612.058C516.309,603.968 532.385,598.001 543.007,604.607Z" style="fill:rgb(136,193,238);fill-rule:nonzero;"/>
        <path d="M472.945,653.327C459.121,658.322 442.549,650.204 442.64,645.422C442.729,640.736 458.819,638.643 458.451,634.88C458.028,630.566 436.614,630.649 436.051,625.656C435.678,622.341 445.02,621.393 447.91,613.798C450.621,606.674 445.044,600.564 447.91,597.986C450.531,595.628 455.23,600.704 465.039,600.621C472.745,600.557 476.427,597.368 478.216,599.304C481.055,602.374 472.459,611.129 475.581,616.433C478.486,621.37 487.938,617.193 491.393,621.704C496.07,627.812 488.194,647.818 472.945,653.327Z" style="fill:rgb(169,219,254);fill-rule:nonzero;"/>
        <path d="M478.217,676.58L478.087,676.57C477.621,676.498 477.302,676.063 477.374,675.599C479.942,658.903 464.413,622.406 464.256,622.039C464.07,621.606 464.271,621.105 464.704,620.92C465.136,620.734 465.638,620.936 465.823,621.368C466.473,622.884 481.7,658.685 479.059,675.857C478.993,676.278 478.631,676.58 478.217,676.58Z" style="fill:rgb(136,193,238);fill-rule:nonzero;"/>
        <path d="M496.626,688.935C496.165,688.935 495.765,688.591 495.708,688.12C493.642,671.401 527.36,626.108 528.797,624.188C529.103,623.778 529.684,623.695 530.095,624.002C530.505,624.309 530.589,624.89 530.281,625.3C529.935,625.763 495.574,671.909 497.548,687.893C497.61,688.401 497.249,688.864 496.741,688.927L496.626,688.935Z" style="fill:rgb(114,158,207);fill-rule:nonzero;"/>
        <path d="M491.894,670.896C482.582,653.604 504.093,592.369 505.013,589.771L506.761,590.39C506.538,591.019 484.603,653.443 493.527,670.018L491.894,670.896Z" style="fill:rgb(250,126,141);fill-rule:nonzero;"/>
        <path d="M519.063,570.315C519.063,570.315 504.569,575.586 505.887,590.08C505.887,590.08 523.017,583.492 519.063,570.315Z" style="fill:rgb(202,82,92);fill-rule:nonzero;"/>
        <path d="M518.914,605.904C518.914,605.904 503.608,604.001 498.187,617.508C498.187,617.508 516.438,619.437 518.914,605.904Z" style="fill:rgb(202,82,92);fill-rule:nonzero;"/>
        <path d="M486.562,594.653C486.562,594.653 483.438,609.756 496.465,616.245C496.465,616.245 499.852,598.207 486.562,594.653Z" style="fill:rgb(202,82,92);fill-rule:nonzero;"/>
        <path d="M510.752,633.543C510.752,633.543 495.342,634.167 492.198,648.377C492.198,648.377 510.52,647.298 510.752,633.543Z" style="fill:rgb(202,82,92);fill-rule:nonzero;"/>
        <path d="M476.996,627.729C476.996,627.729 476.381,643.141 490.294,647.413C490.294,647.413 490.688,629.064 476.996,627.729Z" style="fill:rgb(202,82,92);fill-rule:nonzero;"/>
        <path d="M507.641,720.527L479.098,720.527C477.824,720.527 476.732,719.617 476.505,718.364L468.992,677.045L517.745,677.045L510.233,718.364C510.005,719.617 508.914,720.527 507.641,720.527Z" style="fill:rgb(136,193,238);fill-rule:nonzero;"/>
        <path d="M517.086,678.363L470.969,678.363C466.984,678.363 463.722,675.102 463.722,671.116C463.722,667.13 466.984,663.869 470.969,663.869L517.086,663.869C521.072,663.869 524.334,667.13 524.334,671.116C524.334,675.102 521.072,678.363 517.086,678.363Z" style="fill:rgb(136,193,238);fill-rule:nonzero;"/>
        <path d="M469.296,678.716L469.272,678.582L469.296,678.716Z" style="fill:rgb(209,208,220);fill-rule:nonzero;"/>
        <path d="M515.753,688.007L469.296,678.716L469.272,678.582L469.232,678.363L517.505,678.363L515.753,688.007Z" style="fill:rgb(114,159,207);fill-rule:nonzero;"/>
    </g>
</svg>
