<?xml version="1.0" encoding="UTF-8" standalone="no"?>
<!DOCTYPE svg PUBLIC "-//W3C//DTD SVG 1.1//EN" "http://www.w3.org/Graphics/SVG/1.1/DTD/svg11.dtd">
<svg width="100%" height="100%" viewBox="0 0 580 437" version="1.1" xmlns="http://www.w3.org/2000/svg" xmlns:xlink="http://www.w3.org/1999/xlink" xml:space="preserve" xmlns:serif="http://www.serif.com/" style="fill-rule:evenodd;clip-rule:evenodd;stroke-linejoin:round;stroke-miterlimit:2;">
    <g transform="matrix(0.988535,0.150991,-0.150991,0.988535,84.3556,-4.73665)">
        <path d="M252.28,331.666C293.661,316.75 315.282,324.985 332.026,333.22C347.098,340.632 358.219,348.045 376.243,338.572C412.565,319.479 390.674,265.455 415.188,230.082C445.75,185.985 479.861,207.258 505.218,168.453C530.838,129.247 502.424,61.858 473.451,25.201C438.832,-18.598 380.836,-47.089 326.452,-39.984C268.903,-32.467 269.472,7.846 203.282,30.017C161.969,43.855 131.309,38.346 103.694,32.837C74.502,27.014 48.714,21.191 17.345,38.219C-39.304,68.97 -70.809,150.713 -48.949,190.607C-32.508,220.611 5.41,211.056 19.624,242.065C38.01,282.174 -16.262,318.154 -1.391,360.236C13.217,401.579 106.287,425.315 159.85,418.676C199.891,413.713 184.907,355.95 252.28,331.666Z" style="fill:rgb(239,249,255);fill-rule:nonzero;"/>
    </g>
</svg>
