<?xml version="1.0" encoding="UTF-8" standalone="no"?>
<!DOCTYPE svg PUBLIC "-//W3C//DTD SVG 1.1//EN" "http://www.w3.org/Graphics/SVG/1.1/DTD/svg11.dtd">
<svg width="100%" height="100%" viewBox="0 0 460 529" version="1.1" xmlns="http://www.w3.org/2000/svg" xmlns:xlink="http://www.w3.org/1999/xlink" xml:space="preserve" xmlns:serif="http://www.serif.com/" style="fill-rule:evenodd;clip-rule:evenodd;stroke-linejoin:round;stroke-miterlimit:2;">
    <g id="maziaj" transform="matrix(-0.958899,-0.283748,-0.283748,0.958899,284.79,-368.417)">
        <g transform="matrix(0.400271,-0.807656,0.932292,0.46204,-399.249,725.005)">
            <path d="M252.28,331.666C293.661,316.75 315.282,324.985 332.026,333.22C347.098,340.632 358.219,348.045 376.243,338.572C412.565,319.479 390.674,265.455 415.188,230.082C445.75,185.985 479.861,207.258 505.218,168.453C530.838,129.247 502.424,61.858 473.451,25.201C438.832,-18.598 380.836,-47.089 326.452,-39.984C268.903,-32.467 269.472,7.846 203.282,30.017C161.969,43.855 131.309,38.346 103.694,32.837C74.502,27.014 48.714,21.191 17.345,38.219C-39.304,68.97 -70.809,150.713 -48.949,190.607C-32.508,220.611 5.41,211.056 19.624,242.065C38.01,282.174 -16.262,318.154 -1.391,360.236C13.217,401.579 106.287,425.315 159.85,418.676C199.891,413.713 184.907,355.95 252.28,331.666Z" style="fill:rgb(248,252,255);fill-rule:nonzero;"/>
        </g>
        <g transform="matrix(0.347415,-0.73818,0.878018,0.413228,-1022.09,565.996)">
            <path d="M344.617,835.746C345.611,839.745 346.695,843.736 347.841,847.611L344.876,848.486C343.719,844.569 342.623,840.535 341.618,836.493L344.617,835.746ZM355.919,870.799L353.056,871.963C351.521,868.181 350.048,864.266 348.678,860.327L351.599,859.311C352.951,863.202 354.404,867.067 355.919,870.799ZM366.382,892.975L363.667,894.453C361.717,890.873 359.823,887.139 358.04,883.353L360.837,882.037C362.594,885.766 364.459,889.446 366.382,892.975ZM379.432,913.699L376.929,915.514C374.523,912.198 372.177,908.726 369.957,905.196L372.574,903.55C374.758,907.022 377.065,910.436 379.432,913.699ZM395.16,932.436L392.944,934.591C390.081,931.646 387.272,928.534 384.593,925.339L386.962,923.354C389.592,926.489 392.35,929.545 395.16,932.436ZM413.483,948.619L411.622,951.088C408.324,948.6 405.075,945.946 401.965,943.197L404.012,940.88C407.062,943.576 410.249,946.18 413.483,948.619ZM434.1,961.747L432.65,964.476C428.985,962.532 425.358,960.419 421.871,958.196L423.531,955.59C426.951,957.768 430.507,959.839 434.1,961.747ZM456.529,971.477L455.523,974.401C451.591,973.046 447.678,971.528 443.893,969.888L445.123,967.051C448.834,968.66 452.672,970.149 456.529,971.477ZM480.175,977.663L479.616,980.704C475.527,979.953 471.434,979.045 467.451,978.005L468.232,975.014C472.142,976.035 476.16,976.928 480.175,977.663ZM504.498,980.346L504.377,983.434C500.216,983.27 496.034,982.958 491.949,982.509L492.287,979.436C496.301,979.878 500.409,980.184 504.498,980.346ZM528.979,979.646L529.274,982.722C525.138,983.12 520.953,983.381 516.838,983.499L516.75,980.41C520.796,980.293 524.911,980.036 528.979,979.646ZM553.159,975.719L553.851,978.731C549.819,979.658 545.707,980.465 541.629,981.129L541.133,978.078C545.145,977.425 549.191,976.631 553.159,975.719ZM577.71,971.589C573.98,972.975 570.14,974.266 566.298,975.427L565.896,975.548L565.004,972.589L565.404,972.468C569.184,971.326 572.962,970.056 576.633,968.691L577.71,971.589ZM600.44,961.369C596.81,963.307 593.044,965.155 589.245,966.861L587.978,964.043C591.714,962.364 595.417,960.548 598.984,958.642L600.44,961.369ZM621.544,948.091C618.236,950.529 614.766,952.891 611.229,955.112L609.586,952.496C613.057,950.314 616.464,947.995 619.71,945.602L621.544,948.091ZM640.389,931.734C637.521,934.675 634.463,937.556 631.297,940.299L629.273,937.961C632.373,935.276 635.369,932.456 638.177,929.577L640.389,931.734ZM656.116,912.327C653.85,915.751 651.356,919.143 648.707,922.404L646.308,920.454C648.894,917.27 651.327,913.963 653.538,910.62L656.116,912.327ZM667.616,890.122C666.141,893.969 664.409,897.811 662.47,901.542L659.728,900.117C661.613,896.488 663.296,892.752 664.729,889.015L667.616,890.122ZM673.733,865.859C673.215,869.981 672.434,874.127 671.409,878.178L668.412,877.421C669.405,873.49 670.164,869.472 670.666,865.474L673.733,865.859ZM673.802,840.841C674.294,845.006 674.538,849.212 674.528,853.347L671.438,853.34C671.447,849.329 671.209,845.245 670.731,841.202L673.802,840.841ZM669.743,821.516C670.442,823.833 671.074,826.186 671.622,828.512L668.613,829.221C667.694,825.32 666.541,821.377 665.193,817.52L668.112,816.502C668.69,818.159 669.24,819.847 669.743,821.516Z" style="fill:rgb(176,222,254);fill-rule:nonzero;"/>
        </g>
        <g transform="matrix(-0.552456,-0.163478,-0.163478,0.552456,500.767,631.445)">
            <path d="M820.237,462C819.88,476.967 807.457,488.81 792.49,488.452C777.523,488.095 765.68,475.672 766.038,460.705C766.395,445.739 778.818,433.896 793.785,434.253C808.752,434.611 820.594,447.033 820.237,462Z" style="fill:rgb(136,193,238);fill-rule:nonzero;"/>
        </g>
        <g transform="matrix(-0.552456,-0.163478,-0.163478,0.552456,500.767,631.445)">
            <path d="M794.044,473.034L794.043,473.034C793.511,473.034 793.01,472.789 792.683,472.369L781.654,458.204C781.068,457.452 781.203,456.368 781.955,455.783C782.707,455.198 783.79,455.334 784.375,456.085L794.046,468.505L801.574,458.862C802.16,458.11 803.244,457.977 803.995,458.563C804.746,459.149 804.879,460.233 804.293,460.984L795.403,472.371C795.076,472.79 794.575,473.034 794.044,473.034Z" style="fill:white;fill-rule:nonzero;"/>
        </g>
    </g>
</svg>
